<svg xmlns="http://www.w3.org/2000/svg" viewBox="0 0 800 800">
  <defs>
    <linearGradient id="bg" x1="0" y1="0" x2="1" y2="1">
      <stop offset="0" stop-color="#06191c"/>
      <stop offset="1" stop-color="#291835"/>
    </linearGradient>
    <radialGradient id="sun" cx="0.5" cy="0.5" r="0.5">
      <stop offset="0" stop-color="#dcff83"/>
      <stop offset="1" stop-color="#80d44d"/>
    </radialGradient>
    <filter id="blur"><feGaussianBlur stdDeviation="32"/></filter>
  </defs>
  <rect width="800" height="800" fill="url(#bg)"/>
  <circle cx="552" cy="230" r="172" fill="#b4ff5c" opacity=".17" filter="url(#blur)"/>
  <circle cx="552" cy="230" r="122" fill="url(#sun)"/>
  <path d="M0 585L110 470l94 84 103-151 92 109 85-66 93 104 75-83 148 115v218H0z" fill="#0e1012"/>
  <path d="M0 634l126-70 94 55 128-83 104 64 111-91 97 73 140-65v283H0z" fill="#15101d"/>
  <g fill="#c8ff4f">
    <rect x="62" y="92" width="8" height="56" rx="4"/>
    <rect x="78" y="74" width="8" height="92" rx="4"/>
    <rect x="94" y="103" width="8" height="34" rx="4"/>
  </g>
  <text x="62" y="690" fill="#f4f7ed" font-family="Arial" font-size="64" font-weight="700">AFTER</text>
  <text x="62" y="748" fill="#c8ff4f" font-family="Arial" font-size="64" font-weight="700">MIDNIGHT</text>
</svg>
