<svg xmlns="http://www.w3.org/2000/svg" viewBox="0 0 800 800">
  <defs>
    <linearGradient id="sky" x1="0" y1="0" x2="0" y2="1">
      <stop offset="0" stop-color="#0d2339"/>
      <stop offset=".52" stop-color="#7353a1"/>
      <stop offset="1" stop-color="#ff7966"/>
    </linearGradient>
    <linearGradient id="road" x1="0" y1="0" x2="1" y2="1">
      <stop offset="0" stop-color="#18151e"/>
      <stop offset="1" stop-color="#030607"/>
    </linearGradient>
    <filter id="glow"><feGaussianBlur stdDeviation="16"/></filter>
  </defs>
  <rect width="800" height="800" fill="url(#sky)"/>
  <circle cx="400" cy="282" r="142" fill="#c8ff4f" opacity=".25" filter="url(#glow)"/>
  <circle cx="400" cy="282" r="105" fill="#e1ff98"/>
  <g fill="#201927">
    <path d="M0 480l100-104 105 75 106-137 91 115 90-73 95 99 94-95 119 113v145H0z"/>
  </g>
  <path d="M0 570l251-74h298l251 74v230H0z" fill="url(#road)"/>
  <path d="M390 514h20l55 286H335z" fill="#c8ff4f" opacity=".88"/>
  <path d="M0 570h800" stroke="#ff8b73" stroke-width="8"/>
  <g fill="#c8ff4f">
    <rect x="58" y="73" width="7" height="48" rx="4"/>
    <rect x="72" y="55" width="7" height="84" rx="4"/>
    <rect x="86" y="82" width="7" height="30" rx="4"/>
  </g>
  <text x="56" y="688" fill="#ffffff" font-family="Arial" font-size="74" font-weight="700">NEON</text>
  <text x="56" y="754" fill="#c8ff4f" font-family="Arial" font-size="74" font-weight="700">WEATHER</text>
</svg>
