<svg xmlns="http://www.w3.org/2000/svg" viewBox="0 0 800 800">
  <defs>
    <linearGradient id="bg" x1="0" y1="1" x2="1" y2="0">
      <stop offset="0" stop-color="#13153a"/>
      <stop offset=".48" stop-color="#4e2d8d"/>
      <stop offset="1" stop-color="#56b9d3"/>
    </linearGradient>
    <filter id="blur"><feGaussianBlur stdDeviation="28"/></filter>
  </defs>
  <rect width="800" height="800" fill="url(#bg)"/>
  <circle cx="650" cy="145" r="165" fill="#c8ff4f" opacity=".28" filter="url(#blur)"/>
  <g fill="none" stroke="#d9ff82" stroke-width="9" stroke-linecap="round">
    <path d="M317 560c-58-49-77-123-55-200l42-148c8-26 43-24 48 3l5 25"/>
    <path d="M357 360l18-183c3-31 45-32 50-1l12 166"/>
    <path d="M437 342l8-144c2-29 41-32 48-4l21 168"/>
    <path d="M514 362l7-93c2-27 39-32 48-7l39 127c23 75 2 163-56 216-47 43-116 55-175 31l-60-25"/>
    <path d="M357 439c63-48 136-39 190 11"/>
    <path d="M382 525c42-29 88-30 133-3"/>
  </g>
  <circle cx="448" cy="440" r="43" fill="none" stroke="#ffb0e1" stroke-width="7"/>
  <circle cx="448" cy="440" r="10" fill="#ffb0e1"/>
  <text x="61" y="704" fill="#ffffff" font-family="Arial" font-size="73" font-weight="700">PALM</text>
  <text x="61" y="768" fill="#c8ff4f" font-family="Arial" font-size="73" font-weight="700">READER</text>
</svg>
